<?xml version="1.0" encoding="utf-8"?>
<!-- Generator: Adobe Illustrator 21.0.2, SVG Export Plug-In . SVG Version: 6.00 Build 0)  -->
<svg version="1.1" id="Layer_2" xmlns="http://www.w3.org/2000/svg" xmlns:xlink="http://www.w3.org/1999/xlink" x="0px" y="0px"
	 viewBox="0 0 65 65" style="enable-background:new 0 0 65 65;" xml:space="preserve">
<path d="M32.5,0C14.6,0,0,14.6,0,32.5C0,50.4,14.6,65,32.5,65C50.4,65,65,50.4,65,32.5C65,14.6,50.4,0,32.5,0z M32.1,34.9L13.2,22.5
	l38.5,0.1L32.1,34.9z M26.7,32.6L13.1,46.1V23.6L26.7,32.6z M27.6,33.1l4.5,3l5.7-3.6l13.7,13.6H14.5L27.6,33.1z M38.7,32l13.6-8.5
	v21.9L38.7,32z"/>
</svg>
